<svg width="643" height="668" viewBox="0 0 643 668" fill="none" xmlns="http://www.w3.org/2000/svg">
<path d="M100.667 0.666687C128 28 287.667 96.6667 300.667 600.667C300.667 622.333 300.667 644.333 300.667 667.333H400.667C400.667 4.66671 167.333 0.666687 100.667 0.666687ZM567.333 100.667C530.765 101.64 494.937 111.198 462.743 128.569C430.549 145.94 402.891 170.637 382 200.667C400.08 243.337 412.626 288.145 419.333 334C458.667 160.333 547 121 567.333 100.667ZM0.666626 234C26.3333 259.667 158 337 167.333 634C167.333 644.667 167.333 656 167.333 667.333H267.333C267.333 384.667 184 241.333 0.666626 234ZM667.333 234C600.667 234 434 309 434 667.333H534C534 367.333 638 263.333 667.333 234Z" fill="#FCFCFC"/>
</svg>
