<svg width="287" height="452" viewBox="0 0 287 452" fill="none" xmlns="http://www.w3.org/2000/svg">
<path d="M41.7524 406.475C66.1786 431.826 102.626 444.918 139.994 444.918C175.483 444.918 215.173 431.14 239.98 406.529" stroke="white" stroke-width="14.0421" stroke-miterlimit="10" stroke-linecap="round" stroke-linejoin="round"/>
<path d="M40.9177 377.685C40.9177 377.685 -33.0285 299.042 37.7259 195.285C37.7259 195.285 39.1083 223.783 46.538 241.495C49.932 248.77 55.0489 255.234 63.0283 255.234C72.4049 255.234 80.0058 248.935 80.0058 237.184C80.0058 235.36 80.0058 232.466 80.0058 230.736C80.743 208.974 76.3191 176.914 105.077 110.045C105.077 110.045 154.48 136.609 133.097 7.45216C133.097 7.45216 237.568 80.7664 233.33 205.564C233.33 214.476 240.125 221.701 248.508 221.701C256.89 221.701 263.685 214.476 263.685 205.564C264.212 206.506 308.071 297.385 246.034 377.685" stroke="white" stroke-width="14.0421" stroke-miterlimit="10" stroke-linecap="round" stroke-linejoin="round"/>
<path d="M50.1123 135.58C51.5025 128.308 55.0846 119.571 63.6123 112.281C63.6123 112.281 76.967 100.798 74.813 85.387" stroke="white" stroke-width="14.0421" stroke-miterlimit="10" stroke-linecap="round" stroke-linejoin="round"/>
</svg>
