<svg width="123" height="123" viewBox="0 0 123 123" fill="none" xmlns="http://www.w3.org/2000/svg">
<path d="M90.1865 84.1205H33.0054C26.8924 84.0817 21.0094 81.7846 16.4876 77.6708C11.9658 73.5569 9.12432 67.9167 8.50949 61.8346C7.89465 55.7524 9.54985 49.6577 13.1569 44.7221C16.7639 39.7865 22.0681 36.3585 28.0497 35.0972C29.6954 27.4216 33.9235 20.5425 40.0284 15.6078C46.1334 10.673 53.746 7.98108 61.596 7.98108C69.446 7.98108 77.0585 10.673 83.1635 15.6078C89.2685 20.5425 93.4965 27.4216 95.1422 35.0972C101.124 36.3585 106.428 39.7865 110.035 44.7221C113.642 49.6577 115.297 55.7524 114.682 61.8346C114.068 67.9167 111.226 73.5569 106.704 77.6708C102.183 81.7846 96.2996 84.0817 90.1865 84.1205ZM61.596 15.5031C55.0911 15.5096 48.8127 17.8918 43.9408 22.2021C39.069 26.5123 35.9393 32.4537 35.1402 38.9092L34.9114 42.1876H31.633C27.0834 42.3696 22.7924 44.3515 19.7041 47.6972C16.6157 51.043 14.9829 55.4785 15.1649 60.0281C15.3469 64.5778 17.3287 68.8687 20.6745 71.9571C24.0202 75.0455 28.4558 76.6783 33.0054 76.4963H90.1865C94.7362 76.6783 99.1717 75.0455 102.517 71.9571C105.863 68.8687 107.845 64.5778 108.027 60.0281C108.209 55.4785 106.576 51.043 103.488 47.6972C100.399 44.3515 96.1085 42.3696 91.5589 42.1876H88.2805L87.8993 39.0617C87.1378 32.6045 84.0449 26.6475 79.2016 22.3095C74.3583 17.9716 68.0978 15.5512 61.596 15.5031Z" fill="white"/>
<path d="M53.9716 114.617C53.3736 114.624 52.7834 114.48 52.2562 114.198C51.3583 113.741 50.6779 112.947 50.3636 111.99C50.0493 111.033 50.1267 109.99 50.5788 109.09L58.203 93.8413C58.4045 93.3573 58.7037 92.9202 59.0818 92.5571C59.4599 92.194 59.9088 91.9128 60.4005 91.7311C60.8922 91.5493 61.4161 91.471 61.9395 91.5008C62.4628 91.5307 62.9744 91.6682 63.4422 91.9048C63.91 92.1413 64.324 92.4718 64.6584 92.8756C64.9927 93.2793 65.2401 93.7477 65.3852 94.2514C65.5304 94.7552 65.57 95.2834 65.5018 95.8031C65.4335 96.3229 65.2588 96.823 64.9885 97.2721L57.3643 112.52C57.0476 113.149 56.5629 113.678 55.964 114.048C55.3652 114.418 54.6756 114.615 53.9716 114.617Z" fill="white"/>
<path d="M76.8439 114.617C76.2459 114.624 75.6558 114.48 75.1285 114.198C74.2306 113.741 73.5502 112.947 73.2359 111.99C72.9216 111.033 72.999 109.99 73.4512 109.09L81.0753 93.8413C81.2768 93.3573 81.576 92.9202 81.9541 92.5571C82.3322 92.194 82.7811 91.9128 83.2728 91.7311C83.7645 91.5493 84.2884 91.471 84.8118 91.5008C85.3352 91.5307 85.8467 91.6682 86.3145 91.9048C86.7824 92.1413 87.1964 92.4718 87.5307 92.8756C87.865 93.2793 88.1124 93.7477 88.2576 94.2514C88.4027 94.7552 88.4423 95.2834 88.3741 95.8031C88.3058 96.3229 88.1311 96.823 87.8608 97.2721L80.2367 112.52C79.9199 113.149 79.4352 113.678 78.8363 114.048C78.2375 114.418 77.5479 114.615 76.8439 114.617Z" fill="white"/>
<path d="M31.099 114.617C30.501 114.624 29.9109 114.48 29.3836 114.198C28.4858 113.741 27.8053 112.947 27.491 111.99C27.1767 111.033 27.2541 109.99 27.7063 109.09L35.3304 93.8413C35.532 93.3573 35.8311 92.9202 36.2092 92.5571C36.5873 92.194 37.0363 91.9128 37.528 91.7311C38.0197 91.5493 38.5436 91.471 39.0669 91.5008C39.5903 91.5307 40.1019 91.6682 40.5697 91.9048C41.0375 92.1413 41.4515 92.4718 41.7858 92.8756C42.1201 93.2793 42.3676 93.7477 42.5127 94.2514C42.6578 94.7552 42.6975 95.2834 42.6292 95.8031C42.5609 96.3229 42.3862 96.823 42.1159 97.2721L34.4918 112.52C34.175 113.149 33.6903 113.678 33.0915 114.048C32.4926 114.418 31.803 114.615 31.099 114.617Z" fill="white"/>
</svg>
